<?xml version="1.0" encoding="iso-8859-1"?>
<!-- Generator: Adobe Illustrator 19.0.0, SVG Export Plug-In . SVG Version: 6.00 Build 0)  -->
<svg version="1.1" id="Layer_1" xmlns="http://www.w3.org/2000/svg" xmlns:xlink="http://www.w3.org/1999/xlink" x="0px" y="0px"
	 viewBox="0 0 512.002 512.002" style="enable-background:new 0 0 512.002 512.002;" xml:space="preserve">
<g>
	<g>
		<path style="fill:#BDC3C7;" d="M459.034,132.415c-4.882,0-8.828-3.955-8.828-8.828c0-34.074-27.727-61.793-61.793-61.793
			c-4.882,0-8.828-3.955-8.828-8.828s3.946-8.828,8.828-8.828c43.811,0,79.448,35.646,79.448,79.448
			C467.862,128.46,463.916,132.415,459.034,132.415"/>
		<path style="fill:#BDC3C7;" d="M459.034,132.415c-1.342,0-2.692-0.309-3.946-0.927l-17.655-8.828
			c-4.361-2.189-6.135-7.486-3.955-11.847c2.198-4.361,7.486-6.135,11.847-3.955l11.97,5.985l13.153-13.153
			c3.452-3.452,9.031-3.452,12.482,0s3.452,9.031,0,12.482l-17.655,17.655C463.581,131.523,461.321,132.415,459.034,132.415"/>
		<path style="fill:#BDC3C7;" d="M397.25,79.449c-3.24,0-6.356-1.783-7.91-4.882l-8.828-17.655
			c-1.695-3.399-1.033-7.503,1.66-10.187l17.655-17.655c3.452-3.452,9.031-3.452,12.482,0c3.452,3.452,3.452,9.031,0,12.482
			l-13.153,13.153l5.985,11.97c2.18,4.361,0.406,9.657-3.955,11.847C399.925,79.149,398.574,79.449,397.25,79.449"/>
	</g>
	<path style="fill:#E64C3C;" d="M184.94,512.001c-2.145,0-4.29-0.821-5.932-2.454c-3.275-3.275-3.275-8.58,0-11.864l318.676-318.676
		c3.275-3.275,8.58-3.275,11.855,0c3.284,3.275,3.284,8.58,0,11.864L190.872,509.547C189.23,511.18,187.085,512.001,184.94,512.001"
		/>
	<path style="fill:#FFFFFF;" d="M238.345,450.208h211.862V238.346H238.345V450.208z M238.345,176.553h-8.828h-52.966v335.448H512
		V176.553H238.345z"/>
	<polygon style="fill:#ECF0F1;" stroke="#000000" points="176.552,176.553 335.448,176.553 335.448,0.001 0,0.001 0,335.449 176.552,335.449 	"/>
	<polygon style="fill:#E64C3C;" points="335.448,12.484 335.448,0.002 322.966,0.002 0,322.968 0,335.45 12.482,335.45 	"/>
</g>
<g>
</g>
<g>
</g>
<g>
</g>
<g>
</g>
<g>
</g>
<g>
</g>
<g>
</g>
<g>
</g>
<g>
</g>
<g>
</g>
<g>
</g>
<g>
</g>
<g>
</g>
<g>
</g>
<g>
</g>
</svg>
