<?xml version="1.0" encoding="utf-8"?>
<!-- Generator: Adobe Illustrator 22.0.0, SVG Export Plug-In . SVG Version: 6.00 Build 0)  -->
<svg version="1.1" id="Layer_1" xmlns="http://www.w3.org/2000/svg" xmlns:xlink="http://www.w3.org/1999/xlink" x="0px" y="0px"
	 viewBox="0 0 32 32" style="enable-background:new 0 0 32 32;" xml:space="preserve">
<style type="text/css">
	.st0{fill:none;}
	.st1{fill:#1A1A1A;}
</style>
<g>
	<path class="st0" d="M32,0L0,0l0,32h32V0z"/>
	<path class="st1" d="M3.2,17.7c1.5-2,3.4-3.7,5.6-4.9c2.2-1.2,4.7-1.8,7.3-1.8c4.3,0,8.5,1.8,11.5,5l0-4.2c0-0.4,0.3-0.8,0.8-0.8
		c0.4,0,0.8,0.4,0.8,0.8v6.4c0,0.4-0.3,0.8-0.8,0.8h-6.1c-0.4,0-0.8-0.4-0.8-0.8c0-0.4,0.3-0.8,0.8-0.8h4.5
		c-2.7-3.1-6.6-4.8-10.6-4.8c-4.6,0-8.9,2.2-11.6,6.1C4.2,18.9,4,19,3.8,19c-0.2,0-0.3-0.1-0.5-0.2C3,18.6,2.9,18.1,3.2,17.7
		C3.2,17.7,3.2,17.7,3.2,17.7z"/>
</g>
</svg>
